<svg id="Layer_1" data-name="Layer 1" xmlns="http://www.w3.org/2000/svg" viewBox="0 0 512 512"><title>j-dollar</title><path d="M0,256C0,114.61,114.61,0,256,0S512,114.63,512,256,397.38,512,256,512,0,397.39,0,256Z" fill="#ff352e"/><path d="M239.27,297.17a37.66,37.66,0,0,1-20.83,27.94Q209,330,193,330a60.87,60.87,0,0,1-17.43-2.5,43.78,43.78,0,0,1-15-7.82,38.6,38.6,0,0,1-10.61-13.63q-4-8.31-4-20.13V273.52h28.45v6.42a54,54,0,0,0,.8,9.62,20.45,20.45,0,0,0,2.8,7.51,14,14,0,0,0,5.51,4.9,19.93,19.93,0,0,0,9.12,1.8q6.21,0,9.62-2.2a12.63,12.63,0,0,0,4.9-5.7,23.85,23.85,0,0,0,1.81-7.62c.19-2.72.3-5.37.3-7.91V183.79h31.45v98A94.45,94.45,0,0,1,239.27,297.17Z" fill="#fff"/><path d="M288.75,298.37a28,28,0,0,0,15.43,8.41V264.92c-.67-.27-1.58-.57-2.71-.9s-2.37-.63-3.7-.9q-7.42-2-14.62-4.7a47.69,47.69,0,0,1-12.93-7.21A33.49,33.49,0,0,1,261.1,240q-3.4-6.7-3.4-16.75a39.13,39.13,0,0,1,14.22-31.14,47.12,47.12,0,0,1,14.83-8.21,67.51,67.51,0,0,1,17.43-3.52V165H316v15.41a72.9,72.9,0,0,1,16.93,3.9,45.82,45.82,0,0,1,13.92,8A39.7,39.7,0,0,1,356.67,205a46,46,0,0,1,4.4,18H332.62a21.07,21.07,0,0,0-5-13.63,14.79,14.79,0,0,0-11.62-5.6v35.46c1.6.4,3.23.8,4.9,1.18s3.44.88,5.31,1.42q14.82,4,22.84,9.91t11.82,12.33a32.1,32.1,0,0,1,4.51,12.83,106.34,106.34,0,0,1,.7,11.41,37.15,37.15,0,0,1-2.2,11.13A37.65,37.65,0,0,1,356,312.6,53.1,53.1,0,0,1,340.64,324Q331,329,316,330v17H304.18V330q-22.44-1.63-35.06-13.83t-14.63-35.86h28.25Q282.54,291.75,288.75,298.37Zm8.81-93.55a17.56,17.56,0,0,0-5.81,3.1,15,15,0,0,0-4.1,5.2,16.68,16.68,0,0,0-1.5,7.32q0,6.6,4.21,10.21t13.82,5.8V203.82A22,22,0,0,0,297.56,204.82Zm25.94,100.26a23.59,23.59,0,0,0,7-3.7,19.79,19.79,0,0,0,5.1-5.9,16.47,16.47,0,0,0,2-8.31q0-7.83-4.91-11.73c-3.27-2.6-8.85-5-16.73-7.11v38.45A35.56,35.56,0,0,0,323.51,305.08Z" fill="#fff"/></svg>